<svg width="313" height="336" viewBox="0 0 313 336" fill="none" xmlns="http://www.w3.org/2000/svg">
<path fill-rule="evenodd" clip-rule="evenodd" d="M312.69 138.539C296.796 129.802 275.526 119.451 255.053 120.186C248.647 120.417 242.317 121.732 236.254 124.522C231.451 124.81 226.699 125.727 222.079 127.436C221.597 127.441 221.115 127.452 220.634 127.47C216.988 127.6 213.367 128.083 209.806 128.989C207.98 128.888 206.156 128.866 204.339 128.931C203.777 128.951 203.215 128.98 202.654 129.017C187.66 121.197 169.146 113.36 151.241 114.003C140.995 114.371 130.944 117.516 121.87 125.027C112.798 132.536 104.721 144.394 98.3942 162.157C83.6574 203.532 91.6928 235.667 97.8717 260.377C98.4454 262.672 99.0031 264.902 99.5252 267.07C102.602 279.849 104.415 290.378 101.066 299.067C97.7259 307.732 89.2072 314.659 71.3663 320.092L71.5179 320.661C89.406 315.214 98.1357 308.217 101.575 299.295C105.005 290.397 103.128 279.675 100.058 266.924C99.5356 264.754 98.9779 262.523 98.4045 260.229C92.2284 235.524 84.2376 203.56 98.9085 162.37C105.209 144.681 113.234 132.923 122.207 125.496C131.177 118.071 141.112 114.959 151.261 114.595C168.691 113.969 186.737 121.446 201.552 129.101C201.225 129.13 200.897 129.161 200.57 129.196C199.865 129.093 199.159 129.001 198.453 128.92C186.97 124.154 174.455 120.636 162.225 121.076C151.979 121.444 141.928 124.588 132.854 132.099C123.782 139.608 115.705 151.466 109.378 169.229C94.6414 210.604 102.677 242.739 108.856 267.45L108.857 267.457C109.431 269.749 109.988 271.977 110.509 274.143C113.586 286.921 115.399 297.45 112.05 306.139C108.71 314.805 100.191 321.732 82.3503 327.164L82.502 327.733C100.39 322.287 109.12 315.289 112.559 306.367C115.989 297.469 114.112 286.747 111.042 273.996C110.52 271.829 109.964 269.602 109.391 267.312L109.39 267.306L109.389 267.302C103.212 242.596 95.2216 210.632 109.892 169.442C116.193 151.753 124.218 139.995 133.191 132.568C142.161 125.143 152.096 122.031 162.245 121.667C173.716 121.255 185.454 124.353 196.362 128.701C189.269 126.788 182.01 125.689 174.847 125.946C164.601 126.314 154.551 129.458 145.477 136.969C136.405 144.479 128.328 156.337 122.001 174.099C107.264 215.474 115.3 247.609 121.478 272.32L121.479 272.322C122.052 274.616 122.61 276.846 123.132 279.013C126.209 291.792 128.022 302.32 124.673 311.009C121.333 319.675 112.814 326.602 94.973 332.034L95.1247 332.603C113.013 327.157 121.742 320.159 125.182 311.237C128.611 302.339 126.735 291.618 123.665 278.867C123.143 276.7 122.586 274.472 122.014 272.182L122.012 272.176L122.011 272.172C115.835 247.467 107.844 215.502 122.515 174.313C128.816 156.623 136.841 144.865 145.813 137.439C154.784 130.014 164.719 126.902 174.868 126.537C180.973 126.318 187.154 127.093 193.245 128.521C191.819 128.47 190.396 128.468 188.976 128.519C178.73 128.887 168.68 132.031 159.606 139.542C150.534 147.051 142.457 158.909 136.13 176.672C121.393 218.047 129.429 250.182 135.607 274.893L135.608 274.894L135.611 274.906L135.613 274.913L135.615 274.924L135.618 274.934L135.621 274.945L135.623 274.955L135.623 274.955L135.624 274.958C136.192 277.23 136.744 279.438 137.261 281.586C140.338 294.364 142.151 304.893 138.802 313.582C135.462 322.248 126.943 329.175 109.102 334.607L109.254 335.176C127.142 329.73 135.871 322.732 139.311 313.81C142.74 304.912 140.864 294.19 137.794 281.439C137.271 279.269 136.714 277.038 136.14 274.745C129.964 250.039 121.973 218.075 136.644 176.885C142.945 159.196 150.97 147.438 159.942 140.011C168.913 132.586 178.848 129.475 188.997 129.11C191.431 129.023 193.878 129.093 196.326 129.3C196.708 129.404 197.089 129.51 197.47 129.618C189.625 130.933 182.003 134.131 174.968 139.954C165.896 147.464 157.819 159.322 151.492 177.084C136.755 218.459 144.791 250.594 150.97 275.305C151.543 277.599 152.101 279.83 152.623 281.998C155.7 294.777 157.513 305.305 154.164 313.995C150.824 322.66 142.305 329.587 124.464 335.019L124.616 335.588C142.504 330.142 151.234 323.144 154.673 314.222C158.103 305.324 156.226 294.603 153.156 281.852C152.634 279.682 152.076 277.451 151.503 275.157L151.502 275.157C145.326 250.452 137.336 218.487 152.006 177.298C158.307 159.608 166.332 147.851 175.305 140.424C182.633 134.358 190.605 131.171 198.812 130.008C199.674 130.266 200.534 130.534 201.39 130.813C201.836 131.01 202.28 131.208 202.723 131.408C198.777 133.123 194.94 135.449 191.263 138.493C182.191 146.002 174.114 157.86 167.787 175.623C153.051 216.998 161.086 249.133 167.265 273.843C167.839 276.138 168.396 278.368 168.918 280.536C171.995 293.315 173.809 303.844 170.459 312.533C167.119 321.198 158.6 328.126 140.759 333.558L140.911 334.127C158.799 328.68 167.529 321.683 170.968 312.761C174.398 303.863 172.522 293.141 169.451 280.39C168.929 278.22 168.371 275.989 167.798 273.695C161.622 248.99 153.631 217.026 168.302 175.836C174.602 158.147 182.627 146.389 191.6 138.962C195.395 135.821 199.362 133.452 203.446 131.736C205.463 132.657 207.44 133.606 209.369 134.566C208.989 134.864 208.61 135.168 208.233 135.48C199.161 142.989 191.084 154.848 184.758 172.61C170.021 213.985 178.056 246.12 184.235 270.831L184.236 270.833L184.237 270.838L184.242 270.861C184.814 273.145 185.369 275.365 185.888 277.524C188.965 290.302 190.779 300.831 187.429 309.52C184.089 318.186 175.571 325.113 157.73 330.545L157.881 331.114C175.769 325.668 184.499 318.67 187.938 309.748C191.368 300.85 189.492 290.128 186.421 277.377C185.902 275.221 185.348 273.005 184.779 270.727L184.777 270.721L184.776 270.715L184.774 270.708L184.768 270.685L184.768 270.683C178.592 245.978 170.601 214.013 185.272 172.823C191.572 155.134 199.598 143.376 208.57 135.949C209.025 135.573 209.483 135.207 209.942 134.853C212.713 136.242 215.383 137.652 217.929 139.035C211.995 146.233 206.666 155.82 202.207 168.34C187.47 209.715 195.505 241.85 201.684 266.56L201.686 266.567C202.259 268.86 202.816 271.088 203.337 273.253C206.414 286.032 208.228 296.561 204.878 305.25C201.538 313.915 193.019 320.842 175.179 326.275L175.33 326.844C193.218 321.397 201.948 314.4 205.387 305.478C208.817 296.58 206.941 285.858 203.87 273.107C203.348 270.937 202.79 268.706 202.217 266.412C196.041 241.707 188.05 209.743 202.721 168.553C207.186 156.017 212.517 146.46 218.438 139.312C218.833 139.527 219.224 139.742 219.613 139.955L219.862 139.428C219.517 139.239 219.169 139.048 218.818 138.857C219.014 138.626 219.209 138.397 219.406 138.171C223.948 140.354 228.256 142.638 232.235 144.825L232.485 144.299C228.556 142.139 224.298 139.881 219.805 137.715C220.45 136.987 221.102 136.287 221.76 135.612C230.675 139.058 239.072 143.39 246.364 147.398L246.614 146.871C239.395 142.903 231.067 138.602 222.208 135.158C223.265 134.099 224.337 133.107 225.423 132.18C238.638 135.698 251.31 142.085 261.727 147.81L261.976 147.284C251.673 141.62 239.111 135.279 225.972 131.718L226.019 131.679C227.43 130.511 228.864 129.45 230.32 128.49C247.522 130.54 264.635 138.99 278.022 146.349L278.271 145.822C265.073 138.568 248.169 130.2 231.093 127.991C232.829 126.892 234.594 125.934 236.383 125.107C236.797 125.082 237.21 125.063 237.624 125.048C257.94 124.319 279.094 134.597 294.992 143.336L295.241 142.81C279.418 134.112 258.266 123.814 237.877 124.448C243.442 122.111 249.222 120.988 255.073 120.778C275.389 120.048 296.543 130.327 312.441 139.066L312.69 138.539ZM203.974 130.369C202.839 130.151 201.701 129.957 200.563 129.791L200.521 129.796C200.874 129.948 201.226 130.102 201.577 130.257C202.298 130.492 203.016 130.734 203.732 130.983C203.999 130.874 204.266 130.769 204.534 130.666L204.312 130.548L203.974 130.369ZM205.222 131.033C205.006 131.113 204.79 131.195 204.574 131.279C205.759 131.701 206.935 132.14 208.103 132.594C207.16 132.078 206.199 131.557 205.222 131.033ZM208.662 132.813C209.323 133.074 209.981 133.339 210.636 133.608C211.205 133.192 211.778 132.792 212.353 132.407C210.243 131.791 208.115 131.243 205.979 130.779C206.963 131.309 207.93 131.835 208.878 132.356L208.662 132.813ZM204.148 129.802C204.735 129.915 205.322 130.035 205.909 130.161C206.582 129.926 207.258 129.707 207.936 129.505C206.742 129.475 205.549 129.48 204.359 129.522C204.13 129.531 203.902 129.54 203.674 129.551C203.832 129.635 203.99 129.718 204.148 129.802ZM209.883 134.171C209.066 133.763 208.241 133.356 207.407 132.953C208.306 133.299 209.199 133.654 210.087 134.016L209.982 134.096L209.883 134.171ZM218.309 138.579C215.807 137.219 213.183 135.83 210.459 134.46C210.543 134.397 210.626 134.334 210.71 134.272C213.496 135.425 216.224 136.652 218.873 137.916C218.684 138.135 218.496 138.356 218.309 138.579ZM219.271 137.459C219.901 136.744 220.537 136.054 221.179 135.39C218.519 134.376 215.814 133.443 213.08 132.623C212.471 133.02 211.866 133.435 211.264 133.868C213.998 135.007 216.673 136.216 219.271 137.459ZM212.997 131.985C211.018 131.396 209.023 130.866 207.019 130.407C207.96 130.101 208.907 129.827 209.858 129.584C211.898 129.698 213.94 129.912 215.979 130.211C214.977 130.759 213.982 131.349 212.997 131.985ZM221.625 134.933C219.033 133.939 216.397 133.02 213.731 132.206C214.791 131.539 215.861 130.924 216.941 130.359C219.554 130.777 222.16 131.334 224.747 132.002C223.692 132.918 222.651 133.894 221.625 134.933ZM225.292 131.536C225.422 131.427 225.552 131.318 225.682 131.21C226.914 130.191 228.163 129.252 229.428 128.389C227.008 128.132 224.587 128.004 222.175 128.027C220.711 128.571 219.261 129.197 217.827 129.908C220.327 130.335 222.819 130.885 225.292 131.536ZM216.852 129.747C218.045 129.129 219.249 128.57 220.464 128.068C217.553 128.182 214.659 128.524 211.802 129.129C213.486 129.274 215.17 129.482 216.852 129.747ZM230.191 127.88C228.074 127.633 225.955 127.483 223.841 127.443C227.431 126.263 231.096 125.548 234.799 125.222C233.243 126.005 231.706 126.889 230.191 127.88ZM141.818 105.061C162.291 104.325 183.561 114.676 199.455 123.413L199.206 123.94C183.308 115.201 162.154 104.922 141.838 105.652C131.69 106.016 121.754 109.128 112.784 116.553C103.812 123.98 95.7864 135.738 89.4858 153.427C74.8149 194.617 82.8057 226.581 88.9818 251.287L88.9828 251.291L88.9843 251.297C89.5568 253.587 90.1137 255.814 90.6354 257.981C93.7057 270.732 95.582 281.454 92.1521 290.352C88.713 299.274 79.9833 306.271 62.0953 311.718L61.9436 311.149C79.7845 305.716 88.3032 298.789 91.6434 290.124C94.9927 281.435 93.1794 270.906 90.1025 258.127C89.5807 255.96 89.0232 253.731 88.4497 251.437L88.449 251.434C82.2701 226.724 74.2348 194.589 88.9716 153.214C95.2983 135.451 103.375 123.593 112.447 116.084C121.521 108.573 131.572 105.429 141.818 105.061ZM191.332 113.053C175.438 104.316 154.168 93.9649 133.695 94.7002C123.449 95.0682 113.398 98.2126 104.324 105.724C95.2523 113.233 87.1752 125.091 80.8485 142.854C66.1117 184.228 74.1471 216.364 80.3259 241.074C80.8997 243.369 81.4574 245.599 81.9794 247.767C85.0563 260.546 86.8697 271.074 83.5203 279.764C80.1801 288.429 71.6615 295.356 53.8205 300.788L53.9722 301.358C71.8602 295.911 80.5899 288.914 84.029 279.992C87.459 271.093 85.5826 260.372 82.5124 247.621C81.9899 245.451 81.4321 243.22 80.8588 240.926C74.6827 216.221 66.6918 184.256 81.3628 143.067C87.6633 125.377 95.6885 113.62 104.661 106.193C113.631 98.7677 123.567 95.656 133.715 95.2915C154.031 94.5619 175.185 104.841 191.083 113.58L191.332 113.053ZM126.521 83.3724C146.994 82.6371 168.264 92.9883 184.158 101.725L183.909 102.252C168.011 93.5129 146.857 83.2341 126.541 83.9637C116.392 84.3282 106.457 87.4399 97.4869 94.865C88.5145 102.292 80.4892 114.05 74.1887 131.739C59.5177 172.929 67.5086 204.893 73.6847 229.598C74.2581 231.892 74.8158 234.123 75.3383 236.293C78.4085 249.044 80.2849 259.766 76.855 268.664C73.4158 277.586 64.6861 284.583 46.7981 290.03L46.6465 289.461C64.4874 284.028 73.006 277.101 76.3462 268.436C79.6956 259.747 77.8823 249.218 74.8053 236.439C74.2833 234.271 73.7256 232.041 73.1518 229.746C66.973 205.036 58.9376 172.9 73.6744 131.526C80.0011 113.763 88.0782 101.905 97.15 94.3958C106.224 86.8848 116.275 83.7404 126.521 83.3724ZM177.581 89.8183C161.686 81.0815 140.417 70.7303 119.943 71.4656C109.697 71.8335 99.6466 74.978 90.5726 82.489C81.5008 89.9981 73.4237 101.856 67.097 119.619C52.3602 160.994 60.3956 193.129 66.5744 217.839L66.5755 217.844L66.5785 217.856L66.5804 217.863L66.5814 217.867L66.5849 217.881C67.1549 220.161 67.7091 222.378 68.2279 224.532C71.3048 237.311 73.1182 247.84 69.7688 256.529C66.4286 265.194 57.91 272.122 40.069 277.554L40.2207 278.123C58.1087 272.676 66.8384 265.679 70.2775 256.757C73.7075 247.859 71.8311 237.137 68.7609 224.386C68.2384 222.216 67.6806 219.985 67.1073 217.692L67.1072 217.691C60.9312 192.986 52.9403 161.022 67.6112 119.832C73.9118 102.143 81.937 90.385 90.9094 82.9581C99.8796 75.5331 109.815 72.4214 119.964 72.0569C140.279 71.3273 161.433 81.6061 177.331 90.3449L177.581 89.8183ZM113.659 59.2807C134.133 58.5455 155.402 68.8966 171.297 77.6335L171.047 78.16C155.149 69.4213 133.995 59.1424 113.679 59.872C103.531 60.2365 93.5955 63.3483 84.6253 70.7733C75.6529 78.2002 67.6277 89.958 61.3271 107.647C46.6562 148.837 54.6471 180.801 60.8231 205.507L60.8237 205.509L60.826 205.518C61.3984 207.808 61.9551 210.035 62.4767 212.201C65.547 224.952 67.4233 235.674 63.9934 244.572C60.5543 253.494 51.8246 260.492 33.9366 265.938L33.7849 265.369C51.6258 259.937 60.1445 253.01 63.4847 244.344C66.834 235.655 65.0207 225.126 61.9438 212.348C61.4218 210.18 60.864 207.949 60.2903 205.655C54.1114 180.944 46.0761 148.809 60.8129 107.434C67.1396 89.6714 75.2167 77.8133 84.2885 70.3041C93.3625 62.7931 103.413 59.6487 113.659 59.2807ZM165.062 65.4042C149.168 56.6673 127.898 46.3162 107.425 47.0514C97.179 47.4194 87.1283 50.5638 78.0543 58.0748C68.9825 65.584 60.9054 77.4421 54.5787 95.2048C39.8419 136.58 47.8773 168.715 54.0561 193.425C54.6298 195.72 55.1876 197.95 55.7096 200.118C58.7865 212.897 60.5999 223.426 57.2505 232.115C53.9103 240.78 45.3917 247.707 27.5507 253.14L27.7024 253.709C45.5904 248.262 54.3201 241.265 57.7592 232.343C61.1892 223.445 59.3128 212.723 56.2425 199.972C55.7201 197.802 55.1625 195.572 54.5892 193.278L54.589 193.277C48.4129 168.572 40.422 136.608 55.0929 95.4179C61.3935 77.7287 69.4187 65.9709 78.3911 58.544C87.3613 51.119 97.2967 48.0072 107.445 47.6427C127.761 46.9131 148.915 57.192 164.813 65.9307L165.062 65.4042ZM101.056 34.9457C121.529 34.2104 142.799 44.5616 158.693 53.2985L158.444 53.825C142.546 45.0862 121.392 34.8074 101.076 35.537C90.9276 35.9015 80.9923 39.0132 72.0221 46.4383C63.0497 53.8651 55.0244 65.6229 48.7239 83.3122C34.053 124.502 42.0438 156.466 48.2199 181.172L48.2206 181.174C48.7937 183.467 49.3512 185.697 49.8735 187.866C52.9438 200.617 54.8201 211.339 51.3902 220.237C47.9511 229.159 39.2213 236.157 21.3334 241.603L21.1817 241.034C39.0226 235.602 47.5412 228.675 50.8815 220.009C54.2308 211.32 52.4175 200.791 49.3406 188.013C48.8185 185.845 48.2608 183.614 47.6871 181.32C41.5082 156.609 33.4728 124.474 48.2096 83.0991C54.5363 65.3364 62.6134 53.4783 71.6852 45.9691C80.7593 38.4581 90.8099 35.3137 101.056 34.9457ZM152.056 41.4482C136.162 32.7113 114.892 22.3601 94.4191 23.0954C84.173 23.4634 74.1224 26.6078 65.0483 34.1188C55.9765 41.6279 47.8994 53.4861 41.5727 71.2488C26.8359 112.623 34.8713 144.759 41.0501 169.469L41.0512 169.474C41.6246 171.767 42.182 173.996 42.7037 176.162C45.7806 188.941 47.5939 199.47 44.2445 208.159C40.9043 216.824 32.3857 223.751 14.5448 229.184L14.6965 229.753C32.5844 224.306 41.3141 217.309 44.7533 208.387C48.1832 199.489 46.3069 188.767 43.2366 176.016C42.7141 173.846 42.1564 171.615 41.583 169.321C35.4069 144.616 27.4161 112.652 42.087 71.4619C48.3875 53.7726 56.4128 42.0148 65.3852 34.588C74.3554 27.1629 84.2907 24.0512 94.4393 23.6867C114.755 22.9571 135.909 33.2359 151.807 41.9747L152.056 41.4482ZM87.4228 11.594C107.896 10.8587 129.166 21.2099 145.06 29.9468L144.811 30.4733C128.913 21.7345 107.759 11.4557 87.443 12.1853C77.2944 12.5498 67.359 15.6615 58.3889 23.0866C49.4165 30.5134 41.3912 42.2712 35.0907 59.9605C20.4197 101.15 28.4106 133.115 34.5867 157.82L34.5869 157.821C35.1602 160.114 35.7179 162.345 36.2403 164.514C39.3105 177.266 41.1869 187.987 37.7569 196.885C34.3178 205.807 25.5881 212.805 7.70012 218.251L7.54844 217.682C25.3894 212.25 33.908 205.323 37.2482 196.657C40.5976 187.968 38.7843 177.44 35.7073 164.661C35.1853 162.493 34.6276 160.262 34.0538 157.968C27.875 133.257 19.8396 101.122 34.5764 59.7474C40.9031 41.9847 48.9802 30.1266 58.052 22.6174C67.126 15.1064 77.1767 11.962 87.4228 11.594ZM137.644 18.8594C121.75 10.1226 100.48 -0.228585 80.007 0.506689C69.7609 0.874659 59.7103 4.01909 50.6363 11.5301C41.5645 19.0392 33.4874 30.8974 27.1607 48.6601C12.4239 90.0347 20.4592 122.17 26.6381 146.881L26.6395 146.886C27.2127 149.179 27.77 151.407 28.2916 153.574C31.3685 166.352 33.1818 176.881 29.8325 185.57C26.4923 194.236 17.9736 201.163 0.132696 206.595L0.284381 207.164C18.1724 201.718 26.9021 194.72 30.3412 185.798C33.7711 176.9 31.8948 166.178 28.8245 153.427C28.302 151.257 27.7443 149.026 27.1709 146.733L27.1709 146.732C20.9948 122.027 13.004 90.0628 27.6749 48.8732C33.9755 31.1839 42.0007 19.4261 50.9731 11.9992C59.9433 4.5742 69.8787 1.46247 80.0272 1.09799C100.343 0.36838 121.497 10.6472 137.395 19.386L137.644 18.8594Z" fill="url(#paint0_radial_39_236)" fill-opacity="0.58"/>
<defs>
<radialGradient id="paint0_radial_39_236" cx="0" cy="0" r="1" gradientUnits="userSpaceOnUse" gradientTransform="translate(112.167 144.443) rotate(118.387) scale(155.973 157.648)">
<stop stop-color="white"/>
<stop offset="1" stop-color="#1E1E1E" stop-opacity="0"/>
<stop offset="1" stop-color="#0E0E35" stop-opacity="0"/>
<stop offset="1" stop-color="white" stop-opacity="0"/>
</radialGradient>
</defs>
</svg>
